<svg width="35" height="35" viewBox="0 0 35 35" fill="none" xmlns="http://www.w3.org/2000/svg">
<g id="carbon:overflow-menu-vertical">
<path id="Vector" d="M17.5 12C18.8807 12 20 10.8807 20 9.5C20 8.11929 18.8807 7 17.5 7C16.1193 7 15 8.11929 15 9.5C15 10.8807 16.1193 12 17.5 12Z" fill="black"/>
<path id="Vector_2" d="M17.5 20C18.8807 20 20 18.8807 20 17.5C20 16.1193 18.8807 15 17.5 15C16.1193 15 15 16.1193 15 17.5C15 18.8807 16.1193 20 17.5 20Z" fill="black"/>
<path id="Vector_3" d="M17.5 29C18.8807 29 20 27.8807 20 26.5C20 25.1193 18.8807 24 17.5 24C16.1193 24 15 25.1193 15 26.5C15 27.8807 16.1193 29 17.5 29Z" fill="black"/>
</g>
</svg>
